<?xml version="1.0" encoding="utf-8"?>
<!-- Generator: Adobe Illustrator 16.0.4, SVG Export Plug-In . SVG Version: 6.00 Build 0)  -->
<!DOCTYPE svg PUBLIC "-//W3C//DTD SVG 1.1//EN" "http://www.w3.org/Graphics/SVG/1.1/DTD/svg11.dtd">
<svg version="1.1" id="Layer_1" xmlns="http://www.w3.org/2000/svg" xmlns:xlink="http://www.w3.org/1999/xlink" x="0px" y="0px"
	 width="566.928px" height="566.93px" viewBox="216.536 216.535 566.928 566.93"
	 enable-background="new 216.536 216.535 566.928 566.93" xml:space="preserve">
<path fill="#55ACEE" d="M783.464,500c0,156.555-126.908,283.465-283.464,283.465c-156.554,0-283.464-126.91-283.464-283.465
	S343.448,216.535,500,216.535C656.556,216.535,783.464,343.445,783.464,500z M467.213,650.091l210.311-210.312
	c7.141-7.142,7.141-18.72,0-25.862l-25.863-25.862c-7.141-7.142-18.722-7.142-25.861,0L454.281,559.571l-80.077-80.077
	c-7.142-7.145-18.722-7.145-25.863,0l-25.862,25.862c-7.142,7.141-7.142,18.72,0,25.862L441.35,650.09
	C448.49,657.234,460.07,657.234,467.213,650.091L467.213,650.091z"/>
</svg>
