<?xml version="1.0" encoding="utf-8"?>
<!-- Generator: Adobe Illustrator 16.0.4, SVG Export Plug-In . SVG Version: 6.00 Build 0)  -->
<!DOCTYPE svg PUBLIC "-//W3C//DTD SVG 1.1//EN" "http://www.w3.org/Graphics/SVG/1.1/DTD/svg11.dtd">
<svg version="1.1" id="Layer_1" xmlns="http://www.w3.org/2000/svg" xmlns:xlink="http://www.w3.org/1999/xlink" x="0px" y="0px"
	 width="1000px" height="1000px" viewBox="-449.191 -449.333 1000 1000" enable-background="new -449.191 -449.333 1000 1000"
	 xml:space="preserve">
<path fill="#55ACEE" d="M50.805-232.798c-156.591,0-283.461,126.865-283.461,283.459c0,156.595,126.871,283.471,283.461,283.471
	c156.595,0,283.471-126.876,283.471-283.471C334.275-105.933,207.399-232.798,50.805-232.798z M215.405,82.665
	c0,7.547-6.174,13.713-13.719,13.713H96.527v105.159c0,7.545-6.166,13.719-13.713,13.719H18.807
	c-7.545,0-13.719-6.174-13.719-13.719V96.378h-105.155c-7.543,0-13.713-6.166-13.713-13.713V18.657
	c0-7.545,6.17-13.713,13.713-13.713H5.088V-100.22c0-7.54,6.174-13.707,13.719-13.707h64.008c7.547,0,13.713,6.167,13.713,13.707
	V4.944h105.159c7.545,0,13.719,6.168,13.719,13.713V82.665z"/>
</svg>
