<?xml version="1.0" encoding="utf-8"?>
<!-- Generator: Adobe Illustrator 16.0.4, SVG Export Plug-In . SVG Version: 6.00 Build 0)  -->
<!DOCTYPE svg PUBLIC "-//W3C//DTD SVG 1.1//EN" "http://www.w3.org/Graphics/SVG/1.1/DTD/svg11.dtd">
<svg version="1.1" id="Layer_1" xmlns="http://www.w3.org/2000/svg" xmlns:xlink="http://www.w3.org/1999/xlink" x="0px" y="0px"
	 width="14.174px" height="13.566px" viewBox="114.803 216.693 14.174 13.566"
	 enable-background="new 114.803 216.693 14.174 13.566" xml:space="preserve">
<path fill="#55ACEE" d="M128.251,221.237l-3.871-0.564l-1.729-3.508c-0.31-0.625-1.208-0.633-1.521,0l-1.73,3.508l-3.87,0.564
	c-0.694,0.101-0.973,0.956-0.469,1.446l2.8,2.729l-0.662,3.854c-0.12,0.697,0.614,1.219,1.229,0.894l3.462-1.82l3.463,1.82
	c0.614,0.322,1.349-0.196,1.229-0.894l-0.662-3.854l2.801-2.729C129.223,222.193,128.945,221.337,128.251,221.237L128.251,221.237z
	 M124.555,224.966l0.628,3.667l-3.293-1.73l-3.293,1.73l0.628-3.667l-2.665-2.596l3.683-0.535l1.647-3.338l1.647,3.338l3.683,0.535
	L124.555,224.966z"/>
</svg>
